<?xml version="1.0" encoding="UTF-8" standalone="no"?>
<!-- Created with Inkscape (http://www.inkscape.org/) -->

<svg
   xmlns:dc="http://purl.org/dc/elements/1.1/"
   xmlns:cc="http://creativecommons.org/ns#"
   xmlns:rdf="http://www.w3.org/1999/02/22-rdf-syntax-ns#"
   xmlns:svg="http://www.w3.org/2000/svg"
   xmlns="http://www.w3.org/2000/svg"
   xmlns:sodipodi="http://sodipodi.sourceforge.net/DTD/sodipodi-0.dtd"
   xmlns:inkscape="http://www.inkscape.org/namespaces/inkscape"
   width="72.200485mm"
   height="42.065075mm"
   viewBox="0 0 72.200485 42.065075"
   version="1.1"
   id="svg8"
   inkscape:version="0.92.3 (2405546, 2018-03-11)"
   sodipodi:docname="logo.svg">
  <defs
     id="defs2" />
  <sodipodi:namedview
     id="base"
     pagecolor="#ffffff"
     bordercolor="#666666"
     borderopacity="1.0"
     inkscape:pageopacity="0.0"
     inkscape:pageshadow="2"
     inkscape:zoom="1"
     inkscape:cx="90.537077"
     inkscape:cy="11.291452"
     inkscape:document-units="mm"
     inkscape:current-layer="layer1"
     showgrid="false"
     inkscape:window-width="1366"
     inkscape:window-height="705"
     inkscape:window-x="-8"
     inkscape:window-y="-8"
     inkscape:window-maximized="1"
     fit-margin-top="2"
     fit-margin-left="2"
     fit-margin-right="2"
     fit-margin-bottom="2" />
  <metadata
     id="metadata5">
    <rdf:RDF>
      <cc:Work
         rdf:about="">
        <dc:format>image/svg+xml</dc:format>
        <dc:type
           rdf:resource="http://purl.org/dc/dcmitype/StillImage" />
        <dc:title></dc:title>
      </cc:Work>
    </rdf:RDF>
  </metadata>
  <g
     inkscape:label="Livello 1"
     inkscape:groupmode="layer"
     id="layer1"
     transform="translate(123.592,-31.109903)">
    <path
       style="opacity:1;fill:#9d303b;fill-opacity:1;stroke:none;stroke-width:3;stroke-miterlimit:4;stroke-dasharray:none;stroke-opacity:1;paint-order:stroke fill markers"
       d="m -119.50189,60.166487 c 1.42856,-1.074822 2.6734,1.870069 3.76254,-0.66722 1.75031,-1.96615 4.82785,-1.439639 5.45168,0.602883 3.31318,-0.06724 6.17568,-2.731879 9.38125,-2.511024 0.83323,2.400675 -2.07162,10.183934 -1.39106,13.033287 -1.58223,1.512111 -0.82933,-10.954659 1.21871,-9.89706 0.95073,-4.693419 6.097771,-1.244104 4.727426,2.484195 0.161275,1.575408 0.195256,8.105109 -0.526123,3.883752 -0.245188,-3.07496 1.067978,-9.315617 4.933005,-7.648071 1.445746,3.499505 4.924519,-3.750311 6.814016,0.632757 2.719608,0.679731 3.757616,0.545141 6.522135,-0.05457 2.627372,0.604323 3.723692,-2.863304 6.006395,-0.702664 1.579289,-1.421383 1.645163,2.784013 3.404579,0.382904 1.670679,1.862827 5.17664,-1.890836 4.717437,2.02768 -0.447428,1.265783 0.695608,6.410912 -0.548657,6.256777 -0.496322,-2.259456 0.328066,-10.296746 3.139418,-8.0648 5.414996,4.462751 4.031513,0.54853 6.826445,0.76479 1.832274,-0.273768 -0.04333,1.200521 -1.456959,0.714979 3.071085,1.354356 4.916554,6.570518 0.519164,5.213313 -1.858239,-0.425473 -1.43448,3.316394 -5.138194,2.986717 -1.018327,-0.600294 -2.873929,0.05476 -4.498435,0.10021 -0.908154,-1.684138 -1.172879,-7.937181 -0.569225,-8.43036 0.587348,2.382495 0.887005,9.395686 -2.593992,8.962386 -2.666369,-2.821313 -5.182933,1.026682 -7.434847,0.724483 -1.736922,-2.784767 -4.478384,-0.147423 -6.638496,-2.278655 -1.822238,2.320933 -4.747314,-0.714475 -6.833871,1.519483 -2.471168,-0.039 -3.242448,-2.398944 -5.029772,-0.142729 -4.400716,1.406999 -3.549325,-7.828136 -3.205178,-8.530345 0.560884,2.263401 0.472834,8.86518 -2.233411,8.955783 -3.35562,0.953892 -2.38082,-8.20238 -2.70637,-9.209775 0.37855,3.127074 1.10808,8.388133 -1.6073,9.274419 -3.34027,2.909608 -3.51675,-5.413024 -7.68591,-3.122921 -1.61909,2.61478 -5.87808,0.587088 -7.01846,-0.128289 -4.87742,3.351197 -0.90306,-5.842084 -0.30795,-7.132297 z"
       id="path3761"
       inkscape:connector-curvature="0"
       sodipodi:nodetypes="ccccccccccccccccccccccccccccccccccc" />
    <g
       aria-label="Player Versus Player"
       style="font-style:normal;font-variant:normal;font-weight:normal;font-stretch:normal;font-size:7.04324293px;line-height:1.25;font-family:Steamwreck;-inkscape-font-specification:Steamwreck;letter-spacing:0px;word-spacing:0px;fill:#f5edba;fill-opacity:1;stroke:#1f0e1c;stroke-width:0.8;stroke-opacity:1;stroke-miterlimit:4;stroke-dasharray:none;paint-order:stroke markers fill;stroke-linejoin:round;stroke-linecap:square"
       id="text3742">
      <path
         d="m -106.69215,64.204599 q 0.17195,0 0.17195,-0.168515 v -1.468489 q 0,-0.168515 -0.17195,-0.168515 h -0.17196 q -0.17195,0 -0.17195,0.168515 v 1.465049 q 0,0.171955 0.17195,0.171955 z m -1.03173,-2.149428 q 0.34391,-0.0034 0.5193,-0.08598 0.16164,-0.08598 0.40582,-0.08598 h 0.0206 q 0.34391,0 0.69126,0.343909 0.16851,0.171954 0.25449,0.171954 -0.17196,0.08598 -0.17196,0.171954 v 1.46161 q 0,0.08598 0.17196,0.171955 -0.086,0 -0.25449,0.171954 -0.34735,0.343908 -0.69126,0.343908 -0.141,-0.0034 -0.25793,-0.02751 v 2.004986 q 0,0.08598 0.17195,0.171954 h -0.85977 q 0.17196,-0.08598 0.17196,-0.171954 v -4.470808 q 0,-0.08598 -0.17196,-0.171955 z"
         style="fill:#f5edba;fill-opacity:1;stroke-width:0.8;stroke:#1f0e1c;stroke-opacity:1;stroke-miterlimit:4;stroke-dasharray:none;paint-order:stroke markers fill;stroke-linejoin:round;stroke-linecap:square"
         id="path4579" />
      <path
         d="m -104.97261,65.838163 q 0,0.171954 0.17195,0.171954 h 0.1754 q 0.16851,0 0.16851,-0.175393 v -0.5984 h 0.51586 v 0.945748 q 0,0.08598 0.17196,0.171954 h -0.0241 q -0.32672,0 -0.48835,0.08598 -0.1754,0.08254 -0.43333,0.08598 -0.25793,-0.0034 -0.42645,-0.08598 -0.16851,-0.08598 -0.49522,-0.08598 h -0.0241 q 0.17196,-0.08598 0.17196,-0.171954 v -3.439084 q 0,-0.08598 -0.17196,-0.171954 h 0.85977 q -0.17195,0.08598 -0.17195,0.171954 z"
         style="fill:#f5edba;fill-opacity:1;stroke-width:0.8;stroke:#1f0e1c;stroke-opacity:1;stroke-miterlimit:4;stroke-dasharray:none;paint-order:stroke markers fill;stroke-linejoin:round;stroke-linecap:square"
         id="path4581" />
      <path
         d="m -101.70548,62.914942 q -0.17196,0.08598 -0.17196,0.171954 v 3.095176 q 0,0.08598 0.17196,0.171954 h -0.85977 q 0.17195,-0.08598 0.17195,-0.171954 v -1.461611 h -0.51586 v 1.461611 q 0,0.08598 0.17195,0.171954 h -0.85977 q 0.17196,-0.08598 0.17196,-0.171954 v -3.095176 q 0,-0.08598 -0.17196,-0.171954 0.086,0 0.26137,-0.171954 0.34047,-0.343908 0.68438,-0.343908 0.34391,0 0.69126,0.343908 0.16851,0.171954 0.25449,0.171954 z m -1.03173,0 q -0.17195,0 -0.17195,0.168515 v 1.121142 h 0.51586 v -1.121142 q 0,-0.168515 -0.17195,-0.168515 z"
         style="fill:#f5edba;fill-opacity:1;stroke-width:0.8;stroke:#1f0e1c;stroke-opacity:1;stroke-miterlimit:4;stroke-dasharray:none;paint-order:stroke markers fill;stroke-linejoin:round;stroke-linecap:square"
         id="path4583" />
      <path
         d="m -100.84571,64.548507 -0.51586,-0.859771 v -0.945748 q 0,-0.08598 -0.17196,-0.171954 h 0.85977 q -0.17195,0.08598 -0.17195,0.171954 v 0.773794 l 0.25793,0.429885 0.25793,-0.429885 v -0.773794 q 0,-0.08598 -0.17195,-0.171954 h 0.859769 q -0.171954,0.08598 -0.171954,0.171954 v 0.945748 l -0.515865,0.859771 v 1.633565 q 0,0.08598 0.17196,0.171954 h -0.85977 q 0.17195,-0.08598 0.17195,-0.171954 z"
         style="fill:#f5edba;fill-opacity:1;stroke-width:0.8;stroke:#1f0e1c;stroke-opacity:1;stroke-miterlimit:4;stroke-dasharray:none;paint-order:stroke markers fill;stroke-linejoin:round;stroke-linecap:square"
         id="path4585" />
      <path
         d="m -98.18042,64.204599 q 0.08942,0 0.171954,-0.171955 v 0.859771 q -0.08598,-0.171954 -0.171954,-0.171954 l -0.60184,-0.0034 v 1.121141 q 0,0.171954 0.171954,0.171954 h 0.171954 q 0.171955,0 0.171955,-0.175393 v -0.5984 h 0.515862 v 0.945748 q 0,0.08598 0.171954,0.171954 h -0.02407 q -0.326713,0 -0.48835,0.08598 -0.175393,0.08254 -0.433325,0.08598 -0.257931,-0.0034 -0.426446,-0.08598 -0.168515,-0.08598 -0.495228,-0.08598 h -0.02407 q 0.171955,-0.08598 0.171955,-0.171954 v -3.439084 q 0,-0.08598 -0.171955,-0.171954 0.343909,-0.0034 0.519302,-0.08598 0.161637,-0.08598 0.405812,-0.08598 h 0.04127 q 0.244175,0 0.41269,0.08598 0.168515,0.08254 0.512423,0.08598 -0.171954,0.08598 -0.171954,0.171954 v 0.945748 h -0.515862 v -0.605279 q 0,-0.168515 -0.171955,-0.168515 h -0.171954 q -0.171954,0 -0.171954,0.168515 v 1.121142 z"
         style="fill:#f5edba;fill-opacity:1;stroke-width:0.8;stroke:#1f0e1c;stroke-opacity:1;stroke-miterlimit:4;stroke-dasharray:none;paint-order:stroke markers fill;stroke-linejoin:round;stroke-linecap:square"
         id="path4587" />
      <path
         d="m -96.374902,64.204599 q 0.171955,0 0.171955,-0.168515 v -0.952627 q 0,-0.168515 -0.171955,-0.168515 h -0.171954 q -0.171954,0 -0.171954,0.168515 v 0.949187 q 0,0.171955 0.171954,0.171955 z m -0.343908,1.977473 q 0,0.08598 0.171954,0.171954 h -0.859771 q 0.171954,-0.08598 0.171954,-0.171954 v -3.439084 q 0,-0.08598 -0.171954,-0.171954 0.343909,-0.0034 0.519302,-0.08598 0.161637,-0.08598 0.405812,-0.08598 h 0.02063 q 0.343909,0 0.691256,0.343908 0.168515,0.171954 0.254492,0.171954 -0.171954,0.08598 -0.171954,0.171954 v 0.945748 q 0,0.08598 -0.08254,0.343909 -0.04815,0.04471 -0.09286,0.08598 0.04471,0.04127 0.09286,0.08598 0.08254,0.257931 0.08254,0.343908 v 1.289657 q 0,0.08598 0.171954,0.171954 h -0.859771 q 0.171955,-0.08598 0.171955,-0.171954 v -1.293096 q 0,-0.168515 -0.171955,-0.168515 h -0.171954 q -0.171954,0 -0.171954,0.171954 z"
         style="fill:#f5edba;fill-opacity:1;stroke-width:0.8;stroke:#1f0e1c;stroke-opacity:1;stroke-miterlimit:4;stroke-dasharray:none;paint-order:stroke markers fill;stroke-linejoin:round;stroke-linecap:square"
         id="path4589" />
      <path
         d="m -92.908305,66.611957 -0.515863,-0.859771 v -3.52506 q 0,-0.08598 -0.171954,-0.171955 h 0.859771 q -0.171954,0.08598 -0.171954,0.171955 v 3.353106 l 0.257931,0.429885 0.257931,-0.429885 v -3.353106 q 0,-0.08598 -0.171954,-0.171955 h 0.859771 q -0.171954,0.08598 -0.171954,0.171955 v 3.52506 l -0.515863,0.859771 v 0.08598 q 0,0.08598 0.171955,0.171954 h -0.859771 q 0.171954,-0.08598 0.171954,-0.171954 z"
         style="fill:#f5edba;fill-opacity:1;stroke-width:0.8;stroke:#1f0e1c;stroke-opacity:1;stroke-miterlimit:4;stroke-dasharray:none;paint-order:stroke markers fill;stroke-linejoin:round;stroke-linecap:square"
         id="path4591" />
      <path
         d="m -90.243015,64.204599 q 0.08942,0 0.171954,-0.171955 v 0.859771 q -0.08598,-0.171954 -0.171954,-0.171954 l -0.601839,-0.0034 v 1.121141 q 0,0.171954 0.171954,0.171954 h 0.171954 q 0.171954,0 0.171954,-0.175393 v -0.5984 h 0.515863 v 0.945748 q 0,0.08598 0.171954,0.171954 h -0.02407 q -0.326713,0 -0.48835,0.08598 -0.175393,0.08254 -0.433324,0.08598 -0.257931,-0.0034 -0.426446,-0.08598 -0.168515,-0.08598 -0.495228,-0.08598 h -0.02407 q 0.171954,-0.08598 0.171954,-0.171954 v -3.439084 q 0,-0.08598 -0.171954,-0.171954 0.343908,-0.0034 0.519302,-0.08598 0.161637,-0.08598 0.405811,-0.08598 h 0.04127 q 0.244175,0 0.41269,0.08598 0.168516,0.08254 0.512424,0.08598 -0.171954,0.08598 -0.171954,0.171954 v 0.945748 h -0.515863 v -0.605279 q 0,-0.168515 -0.171954,-0.168515 H -90.6729 q -0.171954,0 -0.171954,0.168515 v 1.121142 z"
         style="fill:#f5edba;fill-opacity:1;stroke-width:0.8;stroke:#1f0e1c;stroke-opacity:1;stroke-miterlimit:4;stroke-dasharray:none;paint-order:stroke markers fill;stroke-linejoin:round;stroke-linecap:square"
         id="path4593" />
      <path
         d="m -88.437496,64.204599 q 0.171954,0 0.171954,-0.168515 v -0.952627 q 0,-0.168515 -0.171954,-0.168515 h -0.171954 q -0.171954,0 -0.171954,0.168515 v 0.949187 q 0,0.171955 0.171954,0.171955 z m -0.343908,1.977473 q 0,0.08598 0.171954,0.171954 h -0.859771 q 0.171954,-0.08598 0.171954,-0.171954 v -3.439084 q 0,-0.08598 -0.171954,-0.171954 0.343908,-0.0034 0.519301,-0.08598 0.161637,-0.08598 0.405812,-0.08598 h 0.02063 q 0.343908,0 0.691256,0.343908 0.168515,0.171954 0.254492,0.171954 -0.171954,0.08598 -0.171954,0.171954 v 0.945748 q 0,0.08598 -0.08254,0.343909 -0.04815,0.04471 -0.09286,0.08598 0.04471,0.04127 0.09286,0.08598 0.08254,0.257931 0.08254,0.343908 v 1.289657 q 0,0.08598 0.171954,0.171954 h -0.859771 q 0.171954,-0.08598 0.171954,-0.171954 v -1.293096 q 0,-0.168515 -0.171954,-0.168515 h -0.171954 q -0.171954,0 -0.171954,0.171954 z"
         style="fill:#f5edba;fill-opacity:1;stroke-width:0.8;stroke:#1f0e1c;stroke-opacity:1;stroke-miterlimit:4;stroke-dasharray:none;paint-order:stroke markers fill;stroke-linejoin:round;stroke-linecap:square"
         id="path4595" />
      <path
         d="m -85.68623,66.182072 q 0,0.08598 0.171955,0.171954 h -0.02407 q -0.326713,0 -0.48835,0.08598 -0.175393,0.08254 -0.433324,0.08598 -0.257932,-0.0034 -0.426447,-0.08598 -0.168515,-0.08598 -0.495228,-0.08598 h -0.02407 q 0.171954,-0.08598 0.171954,-0.171954 v -1.20368 q 0,-0.171954 -0.171954,-0.343908 l 0.859771,0.687817 q -0.171955,0 -0.171955,0.171954 v 0.343908 q 0,0.171954 0.171955,0.171954 h 0.171954 q 0.171954,0 0.171954,-0.175393 v -0.856332 l -1.031725,-0.687816 v -1.547588 q 0,-0.08598 -0.171954,-0.171954 0.343908,-0.0034 0.519301,-0.08598 0.161637,-0.08598 0.405812,-0.08598 h 0.04127 q 0.244175,0 0.41269,0.08598 0.168515,0.08254 0.512424,0.08598 -0.171955,0.08598 -0.171955,0.171954 v 1.203679 q 0,0.171955 0.171955,0.343909 l -0.859771,-0.687817 q 0.171954,0 0.171954,-0.171954 v -0.347348 q 0,-0.168515 -0.171954,-0.168515 H -86.546 q -0.171955,0 -0.171955,0.168515 v 0.86321 l 1.031725,0.687817 z"
         style="fill:#f5edba;fill-opacity:1;stroke-width:0.8;stroke:#1f0e1c;stroke-opacity:1;stroke-miterlimit:4;stroke-dasharray:none;paint-order:stroke markers fill;stroke-linejoin:round;stroke-linecap:square"
         id="path4597" />
      <path
         d="m -84.138642,62.742988 q 0,-0.08598 -0.171954,-0.171954 h 0.859771 q -0.171955,0.08598 -0.171955,0.171954 v 3.095175 q 0,0.08598 0.171955,0.171954 -0.08598,0 -0.254493,0.171955 -0.347347,0.343908 -0.691255,0.343908 -0.343909,0 -0.684378,-0.343908 -0.175393,-0.171955 -0.26137,-0.171955 0.171954,-0.08598 0.171954,-0.171954 v -3.095175 q 0,-0.08598 -0.171954,-0.171954 h 0.85977 q -0.171954,0.08598 -0.171954,0.171954 v 3.095175 q 0,0.171954 0.171954,0.171954 h 0.171955 q 0.171954,0 0.171954,-0.171954 z"
         style="fill:#f5edba;fill-opacity:1;stroke-width:0.8;stroke:#1f0e1c;stroke-opacity:1;stroke-miterlimit:4;stroke-dasharray:none;paint-order:stroke markers fill;stroke-linejoin:round;stroke-linecap:square"
         id="path4599" />
      <path
         d="m -81.55933,66.182072 q 0,0.08598 0.171954,0.171954 h -0.02407 q -0.326713,0 -0.48835,0.08598 -0.175393,0.08254 -0.433325,0.08598 -0.257931,-0.0034 -0.426446,-0.08598 -0.168515,-0.08598 -0.495228,-0.08598 h -0.02407 q 0.171955,-0.08598 0.171955,-0.171954 v -1.20368 q 0,-0.171954 -0.171955,-0.343908 l 0.859771,0.687817 q -0.171954,0 -0.171954,0.171954 v 0.343908 q 0,0.171954 0.171954,0.171954 h 0.171955 q 0.171954,0 0.171954,-0.175393 v -0.856332 l -1.031725,-0.687816 v -1.547588 q 0,-0.08598 -0.171955,-0.171954 0.343909,-0.0034 0.519302,-0.08598 0.161637,-0.08598 0.405812,-0.08598 h 0.04127 q 0.244175,0 0.41269,0.08598 0.168515,0.08254 0.512423,0.08598 -0.171954,0.08598 -0.171954,0.171954 v 1.203679 q 0,0.171955 0.171954,0.343909 l -0.85977,-0.687817 q 0.171954,0 0.171954,-0.171954 v -0.347348 q 0,-0.168515 -0.171954,-0.168515 h -0.171955 q -0.171954,0 -0.171954,0.168515 v 0.86321 l 1.031725,0.687817 z"
         style="fill:#f5edba;fill-opacity:1;stroke-width:0.8;stroke:#1f0e1c;stroke-opacity:1;stroke-miterlimit:4;stroke-dasharray:none;paint-order:stroke markers fill;stroke-linejoin:round;stroke-linecap:square"
         id="path4601" />
      <path
         d="m -78.436642,64.204599 q 0.171955,0 0.171955,-0.168515 v -1.468489 q 0,-0.168515 -0.171955,-0.168515 h -0.171954 q -0.171954,0 -0.171954,0.168515 v 1.465049 q 0,0.171955 0.171954,0.171955 z m -1.031725,-2.149428 q 0.343909,-0.0034 0.519302,-0.08598 0.161637,-0.08598 0.405812,-0.08598 h 0.02063 q 0.343909,0 0.691256,0.343909 0.168515,0.171954 0.254492,0.171954 -0.171954,0.08598 -0.171954,0.171954 v 1.46161 q 0,0.08598 0.171954,0.171955 -0.08598,0 -0.254492,0.171954 -0.347347,0.343908 -0.691256,0.343908 -0.141002,-0.0034 -0.257931,-0.02751 v 2.004986 q 0,0.08598 0.171954,0.171954 h -0.859771 q 0.171955,-0.08598 0.171955,-0.171954 v -4.470808 q 0,-0.08598 -0.171955,-0.171955 z"
         style="fill:#f5edba;fill-opacity:1;stroke-width:0.8;stroke:#1f0e1c;stroke-opacity:1;stroke-miterlimit:4;stroke-dasharray:none;paint-order:stroke markers fill;stroke-linejoin:round;stroke-linecap:square"
         id="path4603" />
      <path
         d="m -76.7171,65.838163 q 0,0.171954 0.171954,0.171954 h 0.175393 q 0.168515,0 0.168515,-0.175393 v -0.5984 h 0.515863 v 0.945748 q 0,0.08598 0.171954,0.171954 h -0.02407 q -0.326713,0 -0.48835,0.08598 -0.175394,0.08254 -0.433325,0.08598 -0.257931,-0.0034 -0.426446,-0.08598 -0.168515,-0.08598 -0.495228,-0.08598 h -0.02407 q 0.171954,-0.08598 0.171954,-0.171954 v -3.439084 q 0,-0.08598 -0.171954,-0.171954 h 0.859771 q -0.171954,0.08598 -0.171954,0.171954 z"
         style="fill:#f5edba;fill-opacity:1;stroke-width:0.8;stroke:#1f0e1c;stroke-opacity:1;stroke-miterlimit:4;stroke-dasharray:none;paint-order:stroke markers fill;stroke-linejoin:round;stroke-linecap:square"
         id="path4605" />
      <path
         d="m -73.449969,62.914942 q -0.171954,0.08598 -0.171954,0.171954 v 3.095176 q 0,0.08598 0.171954,0.171954 h -0.859771 q 0.171954,-0.08598 0.171954,-0.171954 v -1.461611 h -0.515862 v 1.461611 q 0,0.08598 0.171954,0.171954 h -0.859771 q 0.171954,-0.08598 0.171954,-0.171954 v -3.095176 q 0,-0.08598 -0.171954,-0.171954 0.08598,0 0.26137,-0.171954 0.34047,-0.343908 0.684378,-0.343908 0.343908,0 0.691256,0.343908 0.168515,0.171954 0.254492,0.171954 z m -1.031725,0 q -0.171954,0 -0.171954,0.168515 v 1.121142 h 0.515862 v -1.121142 q 0,-0.168515 -0.171954,-0.168515 z"
         style="fill:#f5edba;fill-opacity:1;stroke-width:0.8;stroke:#1f0e1c;stroke-opacity:1;stroke-miterlimit:4;stroke-dasharray:none;paint-order:stroke markers fill;stroke-linejoin:round;stroke-linecap:square"
         id="path4607" />
      <path
         d="m -72.590198,64.548507 -0.515863,-0.859771 v -0.945748 q 0,-0.08598 -0.171954,-0.171954 h 0.859771 q -0.171954,0.08598 -0.171954,0.171954 v 0.773794 l 0.257931,0.429885 0.257931,-0.429885 v -0.773794 q 0,-0.08598 -0.171954,-0.171954 h 0.859771 q -0.171954,0.08598 -0.171954,0.171954 v 0.945748 l -0.515863,0.859771 v 1.633565 q 0,0.08598 0.171954,0.171954 h -0.859771 q 0.171955,-0.08598 0.171955,-0.171954 z"
         style="fill:#f5edba;fill-opacity:1;stroke-width:0.8;stroke:#1f0e1c;stroke-opacity:1;stroke-miterlimit:4;stroke-dasharray:none;paint-order:stroke markers fill;stroke-linejoin:round;stroke-linecap:square"
         id="path4609" />
      <path
         d="m -69.924909,64.204599 q 0.08942,0 0.171954,-0.171955 v 0.859771 q -0.08598,-0.171954 -0.171954,-0.171954 l -0.60184,-0.0034 v 1.121141 q 0,0.171954 0.171955,0.171954 h 0.171954 q 0.171954,0 0.171954,-0.175393 v -0.5984 h 0.515862 v 0.945748 q 0,0.08598 0.171955,0.171954 h -0.02407 q -0.326713,0 -0.48835,0.08598 -0.175393,0.08254 -0.433324,0.08598 -0.257932,-0.0034 -0.426447,-0.08598 -0.168515,-0.08598 -0.495228,-0.08598 h -0.02407 q 0.171954,-0.08598 0.171954,-0.171954 v -3.439084 q 0,-0.08598 -0.171954,-0.171954 0.343908,-0.0034 0.519301,-0.08598 0.161637,-0.08598 0.405812,-0.08598 h 0.04127 q 0.244175,0 0.41269,0.08598 0.168515,0.08254 0.512424,0.08598 -0.171955,0.08598 -0.171955,0.171954 v 0.945748 h -0.515862 v -0.605279 q 0,-0.168515 -0.171954,-0.168515 h -0.171954 q -0.171955,0 -0.171955,0.168515 v 1.121142 z"
         style="fill:#f5edba;fill-opacity:1;stroke-width:0.8;stroke:#1f0e1c;stroke-opacity:1;stroke-miterlimit:4;stroke-dasharray:none;paint-order:stroke markers fill;stroke-linejoin:round;stroke-linecap:square"
         id="path4611" />
      <path
         d="m -68.11939,64.204599 q 0.171954,0 0.171954,-0.168515 v -0.952627 q 0,-0.168515 -0.171954,-0.168515 h -0.171955 q -0.171954,0 -0.171954,0.168515 v 0.949187 q 0,0.171955 0.171954,0.171955 z m -0.343909,1.977473 q 0,0.08598 0.171954,0.171954 h -0.85977 q 0.171954,-0.08598 0.171954,-0.171954 v -3.439084 q 0,-0.08598 -0.171954,-0.171954 0.343908,-0.0034 0.519301,-0.08598 0.161637,-0.08598 0.405812,-0.08598 h 0.02063 q 0.343908,0 0.691255,0.343908 0.168515,0.171954 0.254492,0.171954 -0.171954,0.08598 -0.171954,0.171954 v 0.945748 q 0,0.08598 -0.08254,0.343909 -0.04815,0.04471 -0.09286,0.08598 0.04471,0.04127 0.09286,0.08598 0.08254,0.257931 0.08254,0.343908 v 1.289657 q 0,0.08598 0.171954,0.171954 h -0.85977 q 0.171954,-0.08598 0.171954,-0.171954 v -1.293096 q 0,-0.168515 -0.171954,-0.168515 h -0.171955 q -0.171954,0 -0.171954,0.171954 z"
         style="fill:#f5edba;fill-opacity:1;stroke-width:0.8;stroke:#1f0e1c;stroke-opacity:1;stroke-miterlimit:4;stroke-dasharray:none;paint-order:stroke markers fill;stroke-linejoin:round;stroke-linecap:square"
         id="path4613" />
    </g>
    <g
       id="g3747"
       style="fill:#f5edba;fill-opacity:1;stroke:#1f0e1c;stroke-opacity:1;stroke-width:0.8;stroke-miterlimit:4;stroke-dasharray:none;paint-order:stroke markers fill;stroke-linejoin:round;stroke-linecap:square">
      <path
         d="m -98.046387,46.05176 q -0.958656,0 -0.958656,-0.939484 v -8.186922 q 0,-0.939483 0.958656,-0.939483 h 0.958656 q 0.958656,0 0.958656,0.939483 v 8.167749 q 0,0.958657 -0.958656,0.958657 z m 5.751933,-11.983201 q -1.917313,-0.01917 -2.895138,-0.479328 -0.901137,-0.479328 -2.262428,-0.479328 h -0.115039 q -1.917312,0 -3.853801,1.917312 -0.93948,0.958656 -1.41881,0.958656 0.95866,0.479328 0.95866,0.958656 v 8.148576 q 0,0.479328 -0.95866,0.958657 0.47933,0 1.41881,0.958656 1.936489,1.917311 3.853801,1.917311 0.786098,-0.01917 1.437984,-0.153384 v 11.177929 q 0,0.479328 -0.958656,0.958656 h 4.793277 Q -93.25311,60.4316 -93.25311,59.952272 V 35.027215 q 0,-0.479328 0.958656,-0.958656 z"
         style="font-style:normal;font-variant:normal;font-weight:normal;font-stretch:normal;font-size:medium;line-height:1.25;font-family:Steamwreck;-inkscape-font-specification:Steamwreck;letter-spacing:0px;word-spacing:0px;fill:#f5edba;fill-opacity:1;stroke:#1f0e1c;stroke-width:0.8;stroke-opacity:1;stroke-miterlimit:4;stroke-dasharray:none;paint-order:stroke markers fill;stroke-linejoin:round;stroke-linecap:square"
         id="path3728"
         inkscape:connector-curvature="0" />
      <path
         sodipodi:nodetypes="ccsccscccsccsccsccsc"
         d="m -88.592868,59.80981 -2.202239,-3.670397 v -8.698625 c 0,-0.244693 -0.244693,-0.489387 -0.734079,-0.73408 h 3.670398 c -0.489387,0.244693 -0.73408,0.489387 -0.73408,0.73408 v 7.964546 l 1.101119,1.835198 1.10112,-1.835198 v -7.964546 c 0,-0.244693 -0.244693,-0.489387 -0.73408,-0.73408 h 3.670397 c -0.489386,0.244693 -0.734079,0.489387 -0.734079,0.73408 v 8.698625 l -2.202238,3.670397 v 0.367039 c 0,0.244693 0.244693,0.489386 0.734079,0.734079 h -3.670398 c 0.489387,-0.244693 0.73408,-0.489386 0.73408,-0.734079 z"
         style="font-style:normal;font-variant:normal;font-weight:normal;font-stretch:normal;font-size:medium;line-height:1.25;font-family:Steamwreck;-inkscape-font-specification:Steamwreck;letter-spacing:0px;word-spacing:0px;fill:#f5edba;fill-opacity:1;stroke:#1f0e1c;stroke-width:0.8;stroke-opacity:1;stroke-miterlimit:4;stroke-dasharray:none;paint-order:stroke markers fill;stroke-linejoin:round;stroke-linecap:square"
         id="path3730"
         inkscape:connector-curvature="0" />
      <path
         inkscape:connector-curvature="0"
         id="path3738"
         style="font-style:normal;font-variant:normal;font-weight:normal;font-stretch:normal;font-size:medium;line-height:1.25;font-family:Steamwreck;-inkscape-font-specification:Steamwreck;letter-spacing:0px;word-spacing:0px;fill:#f5edba;fill-opacity:1;stroke:#1f0e1c;stroke-width:0.8;stroke-opacity:1;stroke-miterlimit:4;stroke-dasharray:none;paint-order:stroke markers fill;stroke-linejoin:round;stroke-linecap:square"
         d="m -76.93712,46.05176 q 0.958656,0 0.958656,-0.939484 v -8.186922 q 0,-0.939483 -0.958656,-0.939483 h -0.958656 q -0.958656,0 -0.958656,0.939483 v 8.167749 q 0,0.958657 0.958656,0.958657 z m -5.751933,-11.983201 q 1.917313,-0.01917 2.895138,-0.479328 0.901137,-0.479328 2.262428,-0.479328 h 0.115039 q 1.917312,0 3.853801,1.917312 0.93948,0.958656 1.41881,0.958656 -0.95866,0.479328 -0.95866,0.958656 v 8.148576 q 0,0.479328 0.95866,0.958657 -0.47933,0 -1.41881,0.958656 -1.936489,1.917311 -3.853801,1.917311 -0.786098,-0.01917 -1.437984,-0.153384 v 11.177929 q 0,0.479328 0.958656,0.958656 h -4.793277 q 0.958656,-0.479328 0.958656,-0.958656 V 35.027215 q 0,-0.479328 -0.958656,-0.958656 z" />
    </g>
  </g>
</svg>
